<svg xmlns:xlink="http://www.w3.org/1999/xlink" xmlns="http://www.w3.org/2000/svg" viewBox="0 0 100 109" preserveAspectRatio="xMidYMid meet" class="css-88gl6m" id="efgaffgd" width="32"  height="32" ><defs id="SvgjsDefs1200"><linearGradient id="SvgjsLinearGradient1205"><stop id="SvgjsStop1206" stop-color="#905e26" offset="0"></stop><stop id="SvgjsStop1207" stop-color="#f5ec9b" offset="0.5"></stop><stop id="SvgjsStop1208" stop-color="#905e26" offset="1"></stop></linearGradient></defs><g id="SvgjsG1201" featurekey="rootContainer" transform="matrix(1,0,0,1,0,0)" fill="#FFFFFF"><rect y="0" height="1" width="1" opacity="0" fill="#FFFFFF"></rect><rect y="104" width="100" height="5" fill="#FFFFFF"></rect></g><g id="SvgjsG1202" featurekey="nameFeature-0" transform="matrix(2.6389154257322844,0,0,2.6389154257322844,-6.332150265488115,-13.666778742186509)" fill="#FFFFFF"><path d="M3.08 12 l16.95992 -0.000078 c0.36 0 0.68 0.28 0.68 0.64 c0 0.4 -0.32 0.68 -0.68 0.68 l-12.52 0 l0 13.2 l8.04 0 c0.36 0 0.68 0.28 0.68 0.64 s-0.32 0.68 -0.68 0.68 l-8.04 0 l0 11.44 c0 0.102812 -0.026406 0.199219 -0.071992 0.284414 c-0.083203 0.256406 -0.32 0.435624 -0.6084 0.435624 l-3.76 0 c-0.36 0 -0.68 -0.28 -0.68 -0.64 l0.001211 -0.040781 c-0.000781 -0.012812 -0.001172 -0.026016 -0.001172 -0.039219 l0 -26.4 c0 -0.080781 0.014414 -0.157578 0.04043 -0.239961 c0 -0.36 0.28 -0.64 0.64 -0.64 l0 0 z M6.19992 13.31992 l-2.48 0 l0 25.36 l2.48 0 l0 -25.36 z M30.812 23.8616 l9.38404 15.0184 c0.097617 0.156406 0.119219 0.331602 0.078008 0.493204 c-0.026797 0.371602 -0.334414 0.626796 -0.678008 0.626796 l-4.76 0 c-0.338789 0 -0.642384 -0.248008 -0.676796 -0.610392 l-6.97 -11.142 l-8.4336 11.4724 c-0.12 0.2 -0.32 0.28 -0.52 0.28 c-0.16 0 -0.28 -0.04 -0.4 -0.12 c-0.32 -0.24 -0.36 -0.64 -0.16 -0.92 l8.7468 -11.938 l-8.7468 -13.982 c-0.2 -0.32 -0.08 -0.72 0.2 -0.92 c0.32 -0.2 0.76 -0.12 0.92 0.2 l16.4652 26.36 l3.241212 0 l-15.946 -25.56 c-0.065586 -0.091211 -0.100781 -0.2 -0.107969 -0.311602 l-0.011992 -0.128398 c0 -0.36 0.28 -0.68 0.64 -0.68 l15.28 0 c0.297188 0 0.54 0.218398 0.615584 0.497188 c0.106406 0.219219 0.083594 0.480428 -0.055625 0.702812 l-7.96 10.52 z M37.14004 13.32 l-12.914 0 l5.8408 9.348 z" fill="#FFFFFF"></path></g></svg>